Coordinates
version=1
nRows=10
nColumns=40
inDegrees=yes

Units are S.I. units (second, meters, Newtons, ...)
Angles are in degrees.

endheader
time	pelvis_tilt	pelvis_list	pelvis_rotation	pelvis_tx	pelvis_ty	pelvis_tz	hip_flexion_r	hip_adduction_r	hip_rotation_r	knee_angle_r	knee_angle_r_beta	ankle_angle_r	subtalar_angle_r	mtp_angle_r	hip_flexion_l	hip_adduction_l	hip_rotation_l	knee_angle_l	knee_angle_l_beta	ankle_angle_l	subtalar_angle_l	mtp_angle_l	lumbar_extension	lumbar_bending	lumbar_rotation	arm_flex_r	arm_add_r	arm_rot_r	elbow_flex_r	pro_sup_r	wrist_flex_r	wrist_dev_r	arm_flex_l	arm_add_l	arm_rot_l	elbow_flex_l	pro_sup_l	wrist_flex_l	wrist_dev_l
     42.60000000	     -4.44952506	     -4.25406541	     -1.59417789	      0.88804506	      0.92629932	      0.41291444	     17.37383600	     -7.11154806	     -3.36842189	     54.47219405	     54.47219405	      0.88165751	    -14.85906702	     -6.54146723	     20.24515120	     -1.84692308	     -0.47731855	     25.97539483	     25.97539483	     13.08707484	    -14.09864499	      1.43267791	     -8.77869554	      5.01586408	      4.15238765	     29.24133552	    -10.34015301	     -5.47622527	     44.84487960	     44.52296605	      0.00000000	      0.00000000	     10.36778284	    -12.16316849	     17.41916088	     33.04705376	     43.83423487	      0.00000000	      0.00000000
     42.62342857	     -4.04544611	     -4.11190482	     -1.89789379	      0.88924760	      0.92401291	      0.40912238	     19.04884979	     -7.26420801	     -2.46527858	     57.50539452	     57.50539452	      1.23529168	    -15.50503252	     -6.21116687	     20.17546955	     -1.44419983	     -0.57641276	     27.48854690	     27.48854690	     13.92111715	    -14.75074781	      1.24463165	     -9.00793616	      5.27858375	      4.06181961	     24.94230949	    -10.81173216	     -5.46883592	     42.19191087	     44.61907479	      0.00000000	      0.00000000	     12.09744636	    -12.34480680	     16.99136727	     34.41749832	     43.93903955	      0.00000000	      0.00000000
     42.64685714	     -3.58947816	     -3.96822416	     -2.21199823	      0.89045128	      0.92175921	      0.40539513	     20.74534995	     -7.35021511	     -1.56050128	     60.40298749	     60.40298749	      3.12737829	    -15.08870893	     -1.68317647	     20.08743319	     -1.01369764	     -0.63934008	     29.15659815	     29.15659815	     15.52403525	    -15.11739116	      2.97288858	     -9.33827688	      5.54044133	      3.48777078	     21.61799662	    -10.80383048	     -5.92381383	     37.16507632	     44.91693605	      0.00000000	      0.00000000	     13.33762430	    -12.86347605	     15.75271310	     36.88832101	     44.24620387	      0.00000000	      0.00000000
     42.67028571	     -3.22991346	     -3.85730169	     -2.57304296	      0.89167396	      0.91939791	      0.40189242	     22.26198332	     -7.41398844	     -0.83342601	     62.27511280	     62.27511280	      3.57066732	    -15.31246691	     -1.70006625	     19.95884522	     -0.63870891	     -0.74744640	     30.51035250	     30.51035250	     16.27415562	    -15.78861254	      2.78792067	     -9.62031035	      5.83970581	      3.55429132	     17.14735018	    -11.45803552	     -5.95441335	     34.51812263	     45.00887170	      0.00000000	      0.00000000	     15.33279949	    -13.08240008	     15.16395922	     38.30019581	     44.36449862	      0.00000000	      0.00000000
     42.69371429	     -2.77041638	     -3.83579072	     -2.97941719	      0.89297934	      0.91758319	      0.39883474	     23.45898891	     -7.34123881	     -0.24268323	     63.28547008	     63.28547008	      4.33466138	    -15.31808616	     -1.12557307	     19.57233508	     -0.38272908	     -0.88437990	     31.64085773	     31.64085773	     17.27083243	    -16.23007703	      3.28624533	    -10.03251726	      6.21018445	      3.76718159	     13.01625409	    -12.04409337	     -6.16261962	     31.18687385	     45.15854550	      0.00000000	      0.00000000	     17.33593960	    -13.25614379	     14.28277073	     40.09709726	     44.53351835	      0.00000000	      0.00000000
     42.71714286	     -2.56284544	     -3.83907654	     -3.45821396	      0.89400136	      0.91577264	      0.39636433	     24.76228588	     -7.22169908	      0.21189520	     63.38135557	     63.38135557	      5.03356169	    -15.11860875	     -1.17666791	     19.41120902	     -0.21938181	     -1.09510064	     32.64118151	     32.64118151	     18.06617949	    -16.65317547	      3.55007442	    -10.21766676	      6.56210607	      3.63179489	      9.07391120	    -12.48796659	     -6.33208014	     28.60794215	     45.26641216	      0.00000000	      0.00000000	     19.14302999	    -13.67982266	     13.50152114	     41.61455404	     44.66764978	      0.00000000	      0.00000000
     42.74057143	     -2.36943657	     -3.90474168	     -4.01786629	      0.89492277	      0.91458414	      0.39458664	     25.79537208	     -6.99699286	      0.51460413	     62.41931162	     62.41931162	      5.76835911	    -14.84467700	     -1.55706516	     19.08889835	     -0.18744803	     -1.38193770	     33.32311913	     33.32311913	     18.86981544	    -16.89335853	      4.09261913	    -10.44355493	      6.92303673	      3.59536470	      5.35516786	    -12.88874297	     -6.58891525	     26.20280906	     45.38178505	      0.00000000	      0.00000000	     20.88987434	    -14.12301065	     12.53295992	     43.35904208	     44.82198520	      0.00000000	      0.00000000
     42.76400000	     -2.28326492	     -4.00052096	     -4.66746467	      0.89559081	      0.91390362	      0.39351815	     26.67951974	     -6.71254540	      0.66444447	     60.43363757	     60.43363757	      6.33592395	    -14.43384787	     -2.49858104	     18.75049964	     -0.25880086	     -1.74919245	     33.74722946	     33.74722946	     19.61294524	    -17.04381535	      4.79927513	    -10.59364180	      7.27273975	      3.44460338	      1.90920861	    -13.17844037	     -6.96315119	     24.29327957	     45.49481486	      0.00000000	      0.00000000	     22.43788005	    -14.70650429	     11.33923772	     45.23076319	     44.99685934	      0.00000000	      0.00000000
     42.78742857	     -2.33767070	     -4.14792076	     -5.35373813	      0.89600874	      0.91378561	      0.39313628	     27.25434317	     -6.35849701	      0.57669712	     57.17107371	     57.17107371	      5.75955134	    -14.45344215	     -6.66079020	     18.46667304	     -0.42808931	     -2.09729202	     33.99841962	     33.99841962	     20.73209577	    -16.98941043	      6.78647747	    -10.65048278	      7.59646031	      2.58665899	     -1.02519736	    -13.24305192	     -8.40424227	     23.34644018	     45.74655968	      0.00000000	      0.00000000	     23.02782469	    -15.54381774	      8.32733043	     48.24247767	     45.40168913	      0.00000000	      0.00000000
     42.81085714	     -2.44352990	     -4.38266157	     -6.13035206	      0.89620392	      0.91425902	      0.39354752	     27.63055754	     -5.82342838	      0.37347508	     53.30413923	     53.30413923	      6.38708777	    -13.32771896	     -6.99413183	     18.00663754	     -0.80128109	     -2.61684382	     33.77915816	     33.77915816	     20.94523310	    -17.07620716	      6.80358472	    -10.65135802	      7.95817437	      2.31482923	     -3.89559016	    -13.50547737	     -8.56073871	     22.27097378	     45.79711450	      0.00000000	      0.00000000	     24.55876086	    -16.31915777	      7.68208604	     49.31474723	     45.49560761	      0.00000000	      0.00000000
